# xmcd
#
# Track frame offsets: 
#        150
#        14062
#        25326
#        36655
#        51326
#        65575
#        82451
#        95702
#        108351
#        131935
#        149659
#        163239
#        178125
#        192188
#        213191
#        229106
#        244964
#
# Disc length: 3513 seconds
#
# Revision: 2
# Processed by: cddbd v1.5.2PL0 Copyright (c) Steve Scherf et al.
# Submitted via: ExactAudioCopyFreeDBPlugin 1.0
#
DISCID=140db711
DTITLE=Various Artist - Jazz Guitar CD 1
DYEAR=2007
DGENRE=Jazz
TTITLE0=Django Reinhardt - You Rascal You
TTITLE1=Django Reinhardt - I´ve Got My Love To Keep Me Warm
TTITLE2=Django Reinhardt - I'll See You In My Dreams
TTITLE3=Django Reinhardt - Nuages
TTITLE4=Charlie Christian - Flying Home
TTITLE5=Charlie Christian - Ad-Lib Blues
TTITLE6=Charlie Christian - I Found a New Baby
TTITLE7=Charlie Christian - Solo Flight
TTITLE8=Les Paul - Body and Soul
TTITLE9=Les Paul - Clouds
TTITLE10=Les Paul - Willie Weep For Me
TTITLE11=Tiny Grimes - St. Louis Blues
TTITLE12=Tiny Grimes - Am I Blue
TTITLE13=Tiny Grimes - Blue Harlem
TTITLE14=Tal Farlow - September Song
TTITLE15=Tal Farlow - Mood Indigo
TTITLE16=Tal Farlow - If I Had You
EXTD=YEAR: 2007
EXTT0=
EXTT1=
EXTT2=
EXTT3=
EXTT4=
EXTT5=
EXTT6=
EXTT7=
EXTT8=
EXTT9=
EXTT10=
EXTT11=
EXTT12=
EXTT13=
EXTT14=
EXTT15=
EXTT16=
PLAYORDER=
